<svg width="12" height="8" viewBox="0 0 12 8" fill="none" xmlns="http://www.w3.org/2000/svg">
<path d="M0.469402 5.96939L5.4694 0.969388C5.53908 0.899468 5.62187 0.843991 5.71304 0.806137C5.8042 0.768283 5.90194 0.748796 6.00065 0.748796C6.09936 0.748796 6.1971 0.768283 6.28827 0.806137C6.37943 0.843991 6.46222 0.899468 6.5319 0.969388L11.5319 5.96939C11.6728 6.11028 11.752 6.30138 11.752 6.50064C11.752 6.69989 11.6728 6.89099 11.5319 7.03189C11.391 7.17278 11.1999 7.25194 11.0007 7.25194C10.8014 7.25194 10.6103 7.17278 10.4694 7.03189L6.00003 2.56251L1.53065 7.03251C1.38976 7.17341 1.19866 7.25256 0.999403 7.25256C0.800145 7.25256 0.609049 7.17341 0.468153 7.03251C0.327257 6.89162 0.2481 6.70052 0.2481 6.50126C0.2481 6.30201 0.327257 6.11091 0.468153 5.97001L0.469402 5.96939Z" fill="black"/>
</svg>
